<svg height="512" viewBox="0 0 64 64" width="512" xmlns="http://www.w3.org/2000/svg"><path d="m47 35.026a4.948 4.948 0 0 0 -3-1.026 5 5 0 1 0 5 5v-24a1 1 0 0 0 -1.165-.986l-24 4a1 1 0 0 0 -.835.986v20.026a4.948 4.948 0 0 0 -3-1.026 5 5 0 1 0 5 5v-17.153l22-3.667zm-3 6.974a3 3 0 1 1 3-3 3 3 0 0 1 -3 3zm-24 4a3 3 0 1 1 3-3 3 3 0 0 1 -3 3zm5-22.18v-3.973l22-3.666v3.972z"/><path d="m8 10h20v2h-20z"/><path d="m8 16h12v2h-12z"/><path d="m8 22h12v2h-12z"/><path d="m8 28h12v2h-12z"/><path d="m8 34h12v2h-12z"/><path d="m8 52h20v2h-20z"/><path d="m8 40h5v2h-5z"/><path d="m8 46h5v2h-5z"/><path d="m61.707 10.293-8-8a1 1 0 0 0 -.707-.293h-17a5 5 0 0 0 -4 2 5 5 0 0 0 -4-2h-25a1 1 0 0 0 -1 1v58a1 1 0 0 0 1 1h25a5 5 0 0 0 4-2 5 5 0 0 0 4 2h25a1 1 0 0 0 1-1v-50a1 1 0 0 0 -.293-.707zm-7.707-4.879 4.586 4.586h-4.586zm-18 54.586a3 3 0 0 1 -3-3 1 1 0 0 0 -2 0 3 3 0 0 1 -3 3h-24v-56h24a3 3 0 0 1 3 3 1 1 0 0 0 2 0 3 3 0 0 1 3-3h16v7a1 1 0 0 0 1 1h7v48z"/><path d="m36 10h14v2h-14z"/><path d="m52 16h4v2h-4z"/><path d="m52 22h4v2h-4z"/><path d="m52 28h4v2h-4z"/><path d="m52 34h4v2h-4z"/><path d="m52 40h4v2h-4z"/><path d="m36 46h20v2h-20z"/><path d="m36 52h20v2h-20z"/></svg>