<?xml version="1.0"?>
<svg xmlns="http://www.w3.org/2000/svg" viewBox="0 0 64 64" width="512" height="512"><g id="Radio-2" data-name="Radio"><path d="M59,22H5a3,3,0,0,0-3,3V59a3,3,0,0,0,3,3H59a3,3,0,0,0,3-3V25A3,3,0,0,0,59,22Zm1,37a1,1,0,0,1-1,1H5a1,1,0,0,1-1-1V25a1,1,0,0,1,1-1H59a1,1,0,0,1,1,1Z"/><path d="M55,40H9a1,1,0,0,0-1,1V57a1,1,0,0,0,1,1H55a1,1,0,0,0,1-1V41A1,1,0,0,0,55,40Zm-1,2v2H10V42ZM10,48V46H54v2Zm44,2v2H10V50ZM10,56V54H54v2Z"/><path d="M57,26H7a1,1,0,0,0-1,1V37a1,1,0,0,0,1,1H57a1,1,0,0,0,1-1V27A1,1,0,0,0,57,26ZM56,36H8V28h5v3h2V28h4v5h2V28h4v3h2V28h4v5h2V28h4v3h2V28h4v5h2V28h4v3h2V28h5Z"/><path d="M61.634,2.227a1,1,0,0,0-.83-.207l-10,2A1,1,0,0,0,50,5v7.184A2.966,2.966,0,0,0,49,12a3,3,0,1,0,3,3V9.82l8-1.6v1.964A2.966,2.966,0,0,0,59,10a3,3,0,1,0,3,3V3A1,1,0,0,0,61.634,2.227ZM49,16a1,1,0,1,1,1-1A1,1,0,0,1,49,16Zm3-8.22V5.82l8-1.6V6.18ZM59,14a1,1,0,1,1,1-1A1,1,0,0,1,59,14Z"/><path d="M5,18a3,3,0,0,0,3-3V9.82l8-1.6v1.964A2.966,2.966,0,0,0,15,10a3,3,0,1,0,3,3V3a1,1,0,0,0-1.2-.98l-10,2A1,1,0,0,0,6,5v7.184A2.966,2.966,0,0,0,5,12a3,3,0,0,0,0,6Zm10-4a1,1,0,1,1,1-1A1,1,0,0,1,15,14Zm1-9.78V6.18L8,7.78V5.82ZM5,14a1,1,0,1,1-1,1A1,1,0,0,1,5,14Z"/><path d="M28,20a3,3,0,0,0,3-3V9.781l6-1.5v3.9A2.966,2.966,0,0,0,36,12a3,3,0,1,0,3,3V7a1,1,0,0,0-1.242-.97l-8,2A1,1,0,0,0,29,9v5.184A2.966,2.966,0,0,0,28,14a3,3,0,0,0,0,6Zm8-4a1,1,0,1,1,1-1A1,1,0,0,1,36,16Zm-8,0a1,1,0,1,1-1,1A1,1,0,0,1,28,16Z"/></g></svg>
