<?xml version="1.0" encoding="utf-8"?>
<svg xmlns="http://www.w3.org/2000/svg" style="margin: auto; background: rgb(248, 210, 74); display: block; shape-rendering: auto;" width="280" height="250" preserveAspectRatio="xMidYMid">
<style type="text/css">
  text {
    text-anchor: middle; font-size: 53px; opacity: 0;
  }
</style>
<g style="transform-origin:140px 125px;transform:scale(1)">
<g transform="translate(140,125)">
  <g transform="translate(0,0)"><g class="path" style="opacity: 1; transform-origin: -102.53px -3.87509px; animation: 1s linear -0.6s infinite normal forwards running blink-7fdd9ba0-4fe2-4744-bec0-3710467cc835;"><path d="M1.11-35.93L1.11-37.10L20.19-37.10L20.19-35.93L14.57-35.93L14.57-1.17L16.48-1.17L16.48-1.17Q20.99-1.17 23.66-3.92L23.66-3.92L23.66-3.92Q26.34-6.68 29.10-12.40L29.10-12.40L30.21-12.40L29.20 0L1.11 0L1.11-1.17L4.24-1.17L4.24-35.93L1.11-35.93" fill="#141515" stroke="none" stroke-width="none" transform="translate(-118.19000244140625,14.674907812638706)" style="fill: rgb(20, 21, 21);"></path></g><g class="path" style="opacity: 1; transform-origin: -72.215px 2.05991px; animation: 1s linear -0.54s infinite normal forwards running blink-7fdd9ba0-4fe2-4744-bec0-3710467cc835;"><path d="M49.24-10.44L49.24-10.44L49.24-14.95L49.24-14.95Q49.24-20.09 48.68-22.45L48.68-22.45L48.68-22.45Q48.12-24.80 46.11-24.80L46.11-24.80L46.11-24.80Q44.94-24.80 44.23-24.14L44.23-24.14L44.23-24.14Q43.51-23.48 43.19-21.94L43.19-21.94L43.19-21.94Q42.72-19.56 42.72-14.68L42.72-14.68L42.72-10.55L42.72-10.55Q42.72-4.77 43.06-3.60L43.06-3.60L43.06-3.60Q43.41-2.44 43.78-1.70L43.78-1.70L43.78-1.70Q44.36-0.42 46.06-0.42L46.06-0.42L46.06-0.42Q48.12-0.42 48.76-2.81L48.76-2.81L48.76-2.81Q49.24-4.50 49.24-10.44zM45.95 0.53L45.95 0.53Q39.33 0.53 35.93-2.86L35.93-2.86L35.93-2.86Q32.54-6.25 32.54-12.59L32.54-12.59L32.54-12.59Q32.54-18.92 36.17-22.34L36.17-22.34L36.17-22.34Q39.80-25.76 46.38-25.76L46.38-25.76L46.38-25.76Q52.95-25.76 56.18-22.60L56.18-22.60L56.18-22.60Q59.41-19.45 59.41-12.98L59.41-12.98L59.41-12.98Q59.41 0.53 45.95 0.53L45.95 0.53" fill="#141515" stroke="none" stroke-width="none" transform="translate(-118.19000244140625,14.674907812638706)" style="fill: rgb(20, 21, 21);"></path></g><g class="path" style="opacity: 1; transform-origin: -42.745px 2.05991px; animation: 1s linear -0.48s infinite normal forwards running blink-7fdd9ba0-4fe2-4744-bec0-3710467cc835;"><path d="M73.62-12.46L73.62-12.46L75.15-12.46L75.15-16.54L75.15-16.54Q75.15-21.57 74.60-23.29L74.60-23.29L74.60-23.29Q74.04-25.02 72.45-25.02L72.45-25.02L72.45-25.02Q71.50-25.02 70.73-24.51L70.73-24.51L70.73-24.51Q69.96-24.01 69.96-23.13L69.96-23.13L69.96-23.13Q69.96-22.26 70.28-21.36L70.28-21.36L71.60-21.36L71.60-21.36Q72.03-20.25 72.03-18.68L72.03-18.68L72.03-18.68Q72.03-17.12 70.70-15.98L70.70-15.98L70.70-15.98Q69.38-14.84 67.36-14.84L67.36-14.84L67.36-14.84Q62.80-14.84 62.80-19.24L62.80-19.24L62.80-19.24Q62.80-25.76 73.88-25.76L73.88-25.76L73.88-25.76Q80.19-25.76 82.60-23.61L82.60-23.61L82.60-23.61Q85.01-21.46 85.01-15.74L85.01-15.74L85.01-4.98L85.01-4.98Q85.01-2.23 86.55-2.23L86.55-2.23L86.55-2.23Q88.35-2.23 88.67-7.68L88.67-7.68L89.46-7.63L89.46-7.63Q89.25-2.97 87.72-1.22L87.72-1.22L87.72-1.22Q86.18 0.53 82.68 0.53L82.68 0.53L82.68 0.53Q76.32 0.53 75.37-3.39L75.37-3.39L75.37-3.39Q74.68-1.38 73.30-0.42L73.30-0.42L73.30-0.42Q71.92 0.53 69.27 0.53L69.27 0.53L69.27 0.53Q61.43 0.53 61.43-5.88L61.43-5.88L61.43-5.88Q61.43-9.65 64.42-11.05L64.42-11.05L64.42-11.05Q67.42-12.46 73.62-12.46zM71.50-5.94L71.50-5.94Q71.50-3.18 71.79-2.38L71.79-2.38L71.79-2.38Q72.08-1.59 72.90-1.59L72.90-1.59L72.90-1.59Q73.72-1.59 74.44-2.94L74.44-2.94L74.44-2.94Q75.15-4.29 75.15-6.68L75.15-6.68L75.15-11.61L74.78-11.61L74.78-11.61Q71.50-11.61 71.50-6.78L71.50-6.78L71.50-5.94" fill="#141515" stroke="none" stroke-width="none" transform="translate(-118.19000244140625,14.674907812638706)" style="fill: rgb(20, 21, 21);"></path></g><g class="path" style="opacity: 1; transform-origin: -13.04px -4.93509px; animation: 1s linear -0.42s infinite normal forwards running blink-7fdd9ba0-4fe2-4744-bec0-3710467cc835;"><path d="M100.75-10.97L100.75-10.97Q100.75-5.41 101.34-3.58L101.34-3.58L101.34-3.58Q101.92-1.75 103.48-1.75L103.48-1.75L103.48-1.75Q105.05-1.75 106.19-3.13L106.19-3.13L106.19-3.13Q107.33-4.50 107.33-7.21L107.33-7.21L107.33-18.76L107.33-18.76Q107.33-21.04 106.42-22.63L106.42-22.63L106.42-22.63Q105.52-24.22 103.77-24.22L103.77-24.22L103.77-24.22Q102.03-24.22 101.39-21.89L101.39-21.89L101.39-21.89Q100.75-19.56 100.75-13.73L100.75-13.73L100.75-10.97zM119.78 0L108.01 0L107.43-3.71L107.43-3.71Q105.63 0.53 100.12 0.53L100.12 0.53L100.12 0.53Q95.56 0.53 93.04-2.76L93.04-2.76L93.04-2.76Q90.52-6.04 90.52-12.56L90.52-12.56L90.52-12.56Q90.52-25.76 101.02-25.76L101.02-25.76L101.02-25.76Q105.68-25.76 107.17-23.16L107.17-23.16L107.17-38.80L103.93-38.80L103.93-39.75L117.18-39.75L117.18-0.95L119.78-0.95L119.78 0" fill="#141515" stroke="none" stroke-width="none" transform="translate(-118.19000244140625,14.674907812638706)" style="fill: rgb(20, 21, 21);"></path></g><g class="path" style="opacity: 1; transform-origin: 10.89px -19.1351px; animation: 1s linear -0.36s infinite normal forwards running blink-7fdd9ba0-4fe2-4744-bec0-3710467cc835;"><path d="M128.95-28.88L128.95-28.88L128.95-28.88Q126.14-28.88 124.95-30.32L124.95-30.32L124.95-30.32Q123.75-31.75 123.75-33.87L123.75-33.87L123.75-33.87Q123.75-35.99 125.05-37.37L125.05-37.37L125.05-37.37Q126.35-38.74 129.00-38.74L129.00-38.74L129.00-38.74Q131.65-38.74 133.03-37.50L133.03-37.50L133.03-37.50Q134.41-36.25 134.41-33.95L134.41-33.95L134.41-33.95Q134.41-31.64 133.08-30.26L133.08-30.26L133.08-30.26Q131.76-28.88 128.95-28.88" fill="#141515" stroke="none" stroke-width="none" transform="translate(-118.19000244140625,14.674907812638706)" style="fill: rgb(20, 21, 21);"></path></g><g class="path" style="opacity: 1; transform-origin: 10.735px 2.05991px; animation: 1s linear -0.3s infinite normal forwards running blink-7fdd9ba0-4fe2-4744-bec0-3710467cc835;"><path d="M120.95-24.27L120.95-25.23L133.93-25.23L133.93-0.95L136.90-0.95L136.90 0L121.16 0L121.16-0.95L124.07-0.95L124.07-24.27L120.95-24.27" fill="#141515" stroke="none" stroke-width="none" transform="translate(-118.19000244140625,14.674907812638706)" style="fill: rgb(20, 21, 21);"></path></g><g class="path" style="opacity: 1; transform-origin: 35.8px 1.79491px; animation: 1s linear -0.24s infinite normal forwards running blink-7fdd9ba0-4fe2-4744-bec0-3710467cc835;"><path d="M138.06-24.27L138.06-25.23L150.84-25.23L150.84-20.35L150.84-20.35Q151.69-22.79 153.44-24.27L153.44-24.27L153.44-24.27Q155.18-25.76 158.74-25.76L158.74-25.76L158.74-25.76Q166.95-25.76 166.95-16.91L166.95-16.91L166.95-0.95L169.92-0.95L169.92 0L154.92 0L154.92-0.95L157.09-0.95L157.09-18.18L157.09-18.18Q157.09-21.36 156.67-22.29L156.67-22.29L156.67-22.29Q156.24-23.21 155.13-23.21L155.13-23.21L155.13-23.21Q153.44-23.21 152.14-20.99L152.14-20.99L152.14-20.99Q150.84-18.76 150.84-15.58L150.84-15.58L150.84-0.95L153.12-0.95L153.12 0L138.06 0L138.06-0.95L140.98-0.95L140.98-24.27L138.06-24.27" fill="#141515" stroke="none" stroke-width="none" transform="translate(-118.19000244140625,14.674907812638706)" style="fill: rgb(20, 21, 21);"></path></g><g class="path" style="opacity: 1; transform-origin: 65.72px 4.97491px; animation: 1s linear -0.18s infinite normal forwards running blink-7fdd9ba0-4fe2-4744-bec0-3710467cc835;"><path d="M191.86-27.98L191.86-27.98L193.34-28.88L193.34-28.88Q193.66-30.53 192.07-30.53L192.07-30.53L192.07-30.53Q189.79-30.53 189.79-27.03L189.79-27.03L189.79-27.03Q189.79-25.65 190.16-23.85L190.16-23.85L190.16-23.85Q194.19-21.15 194.19-16.93L194.19-16.93L194.19-16.93Q194.19-12.72 191.28-10.39L191.28-10.39L191.28-10.39Q188.36-8.06 183.38-8.06L183.38-8.06L183.38-8.06Q181.31-8.06 179.09-8.48L179.09-8.48L179.09-8.48Q176.75-7.00 176.75-6.25L176.75-6.25L176.75-6.25Q176.75-5.51 180.15-5.51L180.15-5.51L185.55-5.51L185.55-5.51Q197.58-5.51 197.58 3.13L197.58 3.13L197.58 3.13Q197.58 7.79 193.95 10.52L193.95 10.52L193.95 10.52Q190.32 13.25 182.64 13.25L182.64 13.25L182.64 13.25Q169.55 13.25 169.55 7.58L169.55 7.58L169.55 7.58Q169.55 4.50 173.63 3.34L173.63 3.34L176.81 4.77L176.81 4.77Q176.38 6.31 176.38 7.68L176.38 7.68L176.38 7.68Q176.38 12.24 183.17 12.24L183.17 12.24L183.17 12.24Q187.30 12.24 189.53 10.71L189.53 10.71L189.53 10.71Q191.75 9.17 191.75 6.89L191.75 6.89L191.75 6.89Q191.75 4.61 190.40 3.84L190.40 3.84L190.40 3.84Q189.05 3.07 185.02 3.07L185.02 3.07L179.88 3.07L179.88 3.07Q175.59 3.07 173.73 1.64L173.73 1.64L173.73 1.64Q171.88 0.21 171.88-1.88L171.88-1.88L171.88-1.88Q171.88-3.98 173.20-5.38L173.20-5.38L173.20-5.38Q174.53-6.78 177.92-8.85L177.92-8.85L177.92-8.85Q171.77-10.60 171.77-16.91L171.77-16.91L171.77-16.91Q171.77-20.88 174.63-23.32L174.63-23.32L174.63-23.32Q177.50-25.76 183.22-25.76L183.22-25.76L183.22-25.76Q186.67-25.76 189.10-24.43L189.10-24.43L189.10-24.43Q188.79-25.86 188.79-27.03L188.79-27.03L188.79-27.03Q188.79-30.00 190.38-31.32L190.38-31.32L190.38-31.32Q191.97-32.65 193.93-32.65L193.93-32.65L193.93-32.65Q195.89-32.65 197.08-31.61L197.08-31.61L197.08-31.61Q198.27-30.58 198.27-28.78L198.27-28.78L198.27-28.78Q198.27-26.98 197.32-26.10L197.32-26.10L197.32-26.10Q196.37-25.23 195.01-25.23L195.01-25.23L195.01-25.23Q193.66-25.23 192.79-25.94L192.79-25.94L192.79-25.94Q191.91-26.66 191.86-27.98zM180.62-18.07L180.62-18.07L180.62-15.21L180.62-15.21Q180.62-11.66 181.23-10.39L181.23-10.39L181.23-10.39Q181.84-9.12 183.09-9.12L183.09-9.12L183.09-9.12Q184.33-9.12 184.89-10.36L184.89-10.36L184.89-10.36Q185.45-11.61 185.45-15.48L185.45-15.48L185.45-18.07L185.45-18.07Q185.45-22.21 184.92-23.51L184.92-23.51L184.92-23.51Q184.39-24.80 183.14-24.80L183.14-24.80L183.14-24.80Q181.90-24.80 181.26-23.45L181.26-23.45L181.26-23.45Q180.62-22.10 180.62-18.07" fill="#141515" stroke="none" stroke-width="none" transform="translate(-118.19000244140625,14.674907812638706)" style="fill: rgb(20, 21, 21);"></path></g><g class="path" style="opacity: 1; transform-origin: 86.575px 10.5949px; animation: 1s linear -0.12s infinite normal forwards running blink-7fdd9ba0-4fe2-4744-bec0-3710467cc835;"><path d="M204.71 0.53L204.71 0.53L204.71 0.53Q202.41 0.53 201.27-0.82L201.27-0.82L201.27-0.82Q200.13-2.17 200.13-4.11L200.13-4.11L200.13-4.11Q200.13-6.04 201.32-7.37L201.32-7.37L201.32-7.37Q202.51-8.69 204.69-8.69L204.69-8.69L204.69-8.69Q206.86-8.69 208.13-7.58L208.13-7.58L208.13-7.58Q209.40-6.47 209.40-4.24L209.40-4.24L209.40-4.24Q209.40-2.01 208.21-0.74L208.21-0.74L208.21-0.74Q207.02 0.53 204.71 0.53" fill="#141515" stroke="none" stroke-width="none" transform="translate(-118.19000244140625,14.674907812638706)" style="fill: rgb(20, 21, 21);"></path></g><g class="path" style="opacity: 1; transform-origin: 100.62px 10.5949px; animation: 1s linear -0.06s infinite normal forwards running blink-7fdd9ba0-4fe2-4744-bec0-3710467cc835;"><path d="M218.76 0.53L218.76 0.53L218.76 0.53Q216.45 0.53 215.31-0.82L215.31-0.82L215.31-0.82Q214.17-2.17 214.17-4.11L214.17-4.11L214.17-4.11Q214.17-6.04 215.37-7.37L215.37-7.37L215.37-7.37Q216.56-8.69 218.73-8.69L218.73-8.69L218.73-8.69Q220.90-8.69 222.18-7.58L222.18-7.58L222.18-7.58Q223.45-6.47 223.45-4.24L223.45-4.24L223.45-4.24Q223.45-2.01 222.26-0.74L222.26-0.74L222.26-0.74Q221.06 0.53 218.76 0.53" fill="#141515" stroke="none" stroke-width="none" transform="translate(-118.19000244140625,14.674907812638706)" style="fill: rgb(20, 21, 21);"></path></g><g class="path" style="opacity: 1; transform-origin: 114.665px 10.5949px; animation: 1s linear 0s infinite normal forwards running blink-7fdd9ba0-4fe2-4744-bec0-3710467cc835;"><path d="M232.80 0.53L232.80 0.53L232.80 0.53Q230.50 0.53 229.36-0.82L229.36-0.82L229.36-0.82Q228.22-2.17 228.22-4.11L228.22-4.11L228.22-4.11Q228.22-6.04 229.41-7.37L229.41-7.37L229.41-7.37Q230.60-8.69 232.78-8.69L232.78-8.69L232.78-8.69Q234.95-8.69 236.22-7.58L236.22-7.58L236.22-7.58Q237.49-6.47 237.49-4.24L237.49-4.24L237.49-4.24Q237.49-2.01 236.30-0.74L236.30-0.74L236.30-0.74Q235.11 0.53 232.80 0.53" fill="#141515" stroke="none" stroke-width="none" transform="translate(-118.19000244140625,14.674907812638706)" style="fill: rgb(20, 21, 21);"></path></g></g>
</g>
</g>
<style id="blink-7fdd9ba0-4fe2-4744-bec0-3710467cc835" data-anikit="">@keyframes blink-7fdd9ba0-4fe2-4744-bec0-3710467cc835 {
  0% { opacity: 1; }
  56.96% { opacity: 1; }
  71.04% { opacity: 0; }
  85.92% { opacity: 0; }
  100% { opacity: 1; }
}</style></svg>